<?xml version="1.0" encoding="UTF-8" standalone="no"?>
<svg
   xmlns:dc="http://purl.org/dc/elements/1.1/"
   xmlns:cc="http://creativecommons.org/ns#"
   xmlns:rdf="http://www.w3.org/1999/02/22-rdf-syntax-ns#"
   xmlns:svg="http://www.w3.org/2000/svg"
   xmlns="http://www.w3.org/2000/svg"
   xmlns:sodipodi="http://sodipodi.sourceforge.net/DTD/sodipodi-0.dtd"
   xmlns:inkscape="http://www.inkscape.org/namespaces/inkscape"
   version="1.1"
   width="100"
   height="100"
   id="svg2"
   inkscape:version="0.48.2 r9819"
   sodipodi:docname="E10.1.svg">
  <title
     id="title2985">E10.1: Church</title>
  <metadata
     id="metadata13">
    <rdf:RDF>
      <cc:Work
         rdf:about="">
        <dc:format>image/svg+xml</dc:format>
        <dc:type
           rdf:resource="http://purl.org/dc/dcmitype/StillImage" />
        <dc:title>E10.1: Church</dc:title>
        <cc:license
           rdf:resource="http://creativecommons.org/licenses/publicdomain/" />
      </cc:Work>
      <cc:License
         rdf:about="http://creativecommons.org/licenses/publicdomain/">
        <cc:permits
           rdf:resource="http://creativecommons.org/ns#Reproduction" />
        <cc:permits
           rdf:resource="http://creativecommons.org/ns#Distribution" />
        <cc:permits
           rdf:resource="http://creativecommons.org/ns#DerivativeWorks" />
      </cc:License>
    </rdf:RDF>
  </metadata>
  <defs
     id="defs11" />
  <sodipodi:namedview
     pagecolor="#ffffff"
     bordercolor="#666666"
     borderopacity="1"
     objecttolerance="10"
     gridtolerance="10"
     guidetolerance="10"
     inkscape:pageopacity="0"
     inkscape:pageshadow="2"
     inkscape:window-width="719"
     inkscape:window-height="480"
     id="namedview9"
     showgrid="false"
     inkscape:zoom="0.59"
     inkscape:cx="-248.30508"
     inkscape:cy="50"
     inkscape:window-x="0"
     inkscape:window-y="0"
     inkscape:window-maximized="0"
     inkscape:current-layer="svg2"
     fit-margin-top="0"
     fit-margin-left="0"
     fit-margin-right="0"
     fit-margin-bottom="0" />
  <symbol
     id="church"
     width="300"
     height="400"
     transform="translate(-100,-150)">
    <path
       d="m 129,150 0,2.0625 c 6.1706,0.51092 11,5.6301 11,11.9375 l 0,26 -26,0 c -6.3069,0 -11.4265,-4.8294 -11.9375,-11 l -2.0625,0 0,42 2.0625,0 c 0.51092,-6.1706 5.6301,-11 11.9375,-11 l 26,0 0,26 c 0,6.3069 -4.8294,11.4265 -11,11.9375 l 0,2.0625 42,0 0,-2.0625 C 164.83,247.4275 160,242.31 160,236 l 0,-26 26,0 c 6.3069,0 11.4265,4.8294 11.9375,11 l 2.0625,0 0,-42 -2.0625,0 c -0.51092,6.1706 -5.6301,11 -11.9375,11 l -26,0 0,-26 c 0,-6.3069 4.8294,-11.4265 11,-11.9375 l 0,-2.0625 -42,0 z"
       id="path5"
       inkscape:connector-curvature="0" />
  </symbol>
  <g
     id="use7"
     transform="translate(-100,-150)">
    <path
       inkscape:connector-curvature="0"
       id="path2986"
       d="m 129,150 0,2.0625 c 6.1706,0.51092 11,5.6301 11,11.9375 l 0,26 -26,0 c -6.3069,0 -11.4265,-4.8294 -11.9375,-11 l -2.0625,0 0,42 2.0625,0 c 0.51092,-6.1706 5.6301,-11 11.9375,-11 l 26,0 0,26 c 0,6.3069 -4.8294,11.4265 -11,11.9375 l 0,2.0625 42,0 0,-2.0625 C 164.83,247.4275 160,242.31 160,236 l 0,-26 26,0 c 6.3069,0 11.4265,4.8294 11.9375,11 l 2.0625,0 0,-42 -2.0625,0 c -0.51092,6.1706 -5.6301,11 -11.9375,11 l -26,0 0,-26 c 0,-6.3069 4.8294,-11.4265 11,-11.9375 l 0,-2.0625 -42,0 z" />
  </g>
</svg>
